<svg width="17" height="19" viewBox="0 0 17 19" fill="none" xmlns="http://www.w3.org/2000/svg">
<path d="M11.7138 17.4691L9.12534 14.6721V12.2181C9.12534 12.1366 9.09623 12.0585 9.0444 12.0009C8.99257 11.9432 8.92228 11.9109 8.84898 11.9109C8.77569 11.9109 8.70539 11.9432 8.65357 12.0009C8.60174 12.0585 8.57261 12.1366 8.57261 12.2181V14.6682L5.9853 17.4652C5.93269 17.5221 5.90258 17.5998 5.90158 17.6814C5.90057 17.763 5.92875 17.8417 5.97994 17.9002C6.03112 17.9587 6.10109 17.9922 6.17448 17.9933C6.24786 17.9944 6.31865 17.963 6.37126 17.9061L8.57381 15.5224V17.6824C8.57381 17.7227 8.58095 17.7627 8.59484 17.7999C8.60873 17.8372 8.62909 17.8711 8.65475 17.8996C8.68041 17.9281 8.71088 17.9508 8.74441 17.9662C8.77794 17.9816 8.81387 17.9896 8.85016 17.9896C8.88646 17.9896 8.9224 17.9816 8.95593 17.9662C8.98946 17.9508 9.01992 17.9281 9.04558 17.8996C9.07124 17.8711 9.0916 17.8372 9.10549 17.7999C9.11938 17.7627 9.12654 17.7227 9.12654 17.6824V15.529L11.3291 17.9128C11.3817 17.9697 11.4525 18.001 11.5258 17.9999C11.5992 17.9988 11.6692 17.9653 11.7204 17.9068C11.7716 17.8484 11.7998 17.7697 11.7988 17.6881C11.7977 17.6065 11.7676 17.5287 11.715 17.4718L11.7138 17.4691Z" fill="#003AA8" stroke="#115C9E" stroke-width="0.2"/>
<path d="M16.4548 0.781006H1.24542V2.17156H16.4548V0.781006Z" fill="#003AA8"/>
<path d="M16.4548 11.5267H1.24542V12.9173H16.4548V11.5267Z" fill="#003AA8"/>
<path d="M2.14124 12.9226L2.14124 0.781006L0.91905 0.781006L0.91905 12.9226H2.14124Z" fill="#003AA8"/>
<path d="M16.8121 12.9226V0.781006L15.5899 0.781006V12.9226H16.8121Z" fill="#003AA8"/>
</svg>
