<svg width="16" height="18" viewBox="0 0 16 18" fill="none" xmlns="http://www.w3.org/2000/svg">
<path d="M2.59914 12.5349V5.47286C2.59914 5.33167 2.65075 5.19625 2.74264 5.09641C2.83452 4.99657 2.95914 4.94048 3.08908 4.94048C3.21902 4.94048 3.34363 4.99657 3.43552 5.09641C3.5274 5.19625 3.57902 5.33167 3.57902 5.47286V12.5349C3.57902 12.6761 3.5274 12.8115 3.43552 12.9113C3.34363 13.0112 3.21902 13.0673 3.08908 13.0673C2.95914 13.0673 2.83452 13.0112 2.74264 12.9113C2.65075 12.8115 2.59914 12.6761 2.59914 12.5349ZM8.7736 4.76746V4.23508H6.17447V14.1227H8.13423C7.91615 13.7539 7.80049 13.3246 7.80107 12.8862V8.65117C7.80107 8.50997 7.85269 8.37456 7.94457 8.27472C8.03645 8.17488 8.16107 8.11879 8.29101 8.11879H13.4856C13.6155 8.11879 13.7402 8.17488 13.832 8.27472C13.9239 8.37456 13.9755 8.50997 13.9755 8.65117V8.82819H14.6259C14.9701 8.82924 15.2998 8.97844 15.5429 9.24312C15.786 9.50779 15.9227 9.86637 15.923 10.2403V11.6525C15.9227 12.0269 15.7857 12.3859 15.5421 12.6506C15.2984 12.9154 14.9681 13.0642 14.6235 13.0646H13.9633C13.9376 13.4436 13.8252 13.8096 13.6363 14.1294H14.4569C14.8448 14.1294 15.2168 14.2968 15.491 14.5948C15.7653 14.8928 15.9194 15.297 15.9194 15.7185C15.9194 16.14 15.7653 16.5442 15.491 16.8422C15.2168 17.1402 14.8448 17.3077 14.4569 17.3077H1.29957C1.12854 17.3075 0.959224 17.2707 0.801306 17.1993C0.643388 17.1279 0.499972 17.0234 0.379264 16.8918C0.258556 16.7601 0.162926 16.6039 0.0978486 16.432C0.0327707 16.2602 -0.000478015 16.076 5.19213e-06 15.8902V1.41214C0.00032949 1.03772 0.137352 0.678745 0.380997 0.413995C0.624643 0.149244 0.955004 0.00035239 1.29957 0L14.6235 0C14.9681 0.00035239 15.2984 0.149244 15.5421 0.413995C15.7857 0.678745 15.9227 1.03772 15.923 1.41214V2.11887C15.9224 2.68061 15.7168 3.21915 15.3512 3.61636C14.9857 4.01357 14.4901 4.23704 13.9731 4.23774H12.9932V4.77012C12.9932 5.37885 12.7707 5.96265 12.3745 6.39309C11.9784 6.82353 11.4412 7.06534 10.881 7.06534C10.3208 7.06534 9.78349 6.82353 9.38737 6.39309C8.99124 5.96265 8.7687 5.37885 8.7687 4.77012L8.7736 4.76746ZM13.9731 12.0052H14.6235C14.7095 12.0048 14.7918 11.9675 14.8526 11.9015C14.9134 11.8354 14.9477 11.7459 14.9481 11.6525V10.2403C14.9477 10.1469 14.9134 10.0574 14.8526 9.99131C14.7918 9.92524 14.7095 9.88797 14.6235 9.88762H13.9731V12.0052ZM5.19949 1.06476H1.29957C1.21528 1.06647 1.13487 1.10361 1.07526 1.16839C1.01564 1.23317 0.981455 1.32054 0.979885 1.41214V15.8902C0.980207 15.9836 1.01451 16.0731 1.07531 16.1392C1.13611 16.2053 1.21848 16.2426 1.30447 16.2429H5.19949V1.06476ZM8.7736 12.8889C8.77393 13.2167 8.89391 13.531 9.10724 13.7628C9.32056 13.9946 9.6098 14.125 9.91149 14.1254H11.8614C12.1631 14.125 12.4524 13.9946 12.6657 13.7628C12.879 13.531 12.999 13.2167 12.9993 12.8889V9.18355H8.7736V12.8889ZM6.17447 15.1835V16.2482H14.4606C14.5905 16.2482 14.7151 16.1921 14.807 16.0923C14.8989 15.9925 14.9505 15.857 14.9505 15.7158C14.9505 15.5747 14.8989 15.4392 14.807 15.3394C14.7151 15.2396 14.5905 15.1835 14.4606 15.1835H6.17447ZM12.0231 4.23774H9.74858V4.77012C9.75827 5.09085 9.88233 5.39493 10.0946 5.61809C10.3068 5.84125 10.5905 5.96601 10.8859 5.96601C11.1812 5.96601 11.4649 5.84125 11.6772 5.61809C11.8894 5.39493 12.0134 5.09085 12.0231 4.77012V4.23774ZM13.9731 3.17298C14.233 3.17298 14.4822 3.0608 14.666 2.86112C14.8497 2.66144 14.953 2.39062 14.953 2.10822V1.41214C14.9514 1.3187 14.9158 1.22975 14.8541 1.16468C14.7924 1.09961 14.7095 1.06369 14.6235 1.06476H6.17202V3.17831L13.9731 3.17298Z" fill="#003AA8"/>
</svg>
