<svg width="21" height="18" viewBox="0 0 21 18" fill="none" xmlns="http://www.w3.org/2000/svg">
<path d="M20.1932 7.22164V3.33229C20.1926 2.65609 19.951 2.00776 19.5214 1.52949C19.0918 1.05122 18.5093 0.78205 17.9016 0.781006H2.61966C2.01176 0.781702 1.42894 1.05072 0.999086 1.52903C0.569234 2.00733 0.327469 2.65586 0.326843 3.33229L0.326843 7.22296C0.327781 7.89916 0.569684 8.54735 0.999502 9.02537C1.42932 9.50339 2.01197 9.77223 2.61966 9.77293H17.9016C18.5093 9.77188 19.0918 9.50271 19.5214 9.02444C19.951 8.54617 20.1926 7.89784 20.1932 7.22164ZM19.1301 7.22164C19.1285 7.58401 18.9985 7.93104 18.7682 8.18727C18.5379 8.44351 18.2261 8.58822 17.9004 8.58995H2.61966C2.29401 8.58822 1.98213 8.44351 1.75186 8.18727C1.52158 7.93104 1.39153 7.58401 1.38997 7.22164V3.33229C1.39029 2.9681 1.52044 2.61893 1.75187 2.36141C1.9833 2.1039 2.2971 1.95907 2.62439 1.95872H17.9016C18.2287 1.95942 18.5422 2.1044 18.7733 2.36188C19.0045 2.61936 19.1345 2.96833 19.1348 3.33229V7.22296L19.1301 7.22164Z" fill="#003AA8"/>
<path d="M17.0393 4.71252H3.42178C3.04584 4.71252 2.68529 4.87871 2.41945 5.17451C2.15362 5.47031 2.00427 5.8715 2.00427 6.28983C2.00427 6.70816 2.15362 7.10934 2.41945 7.40515C2.68529 7.70095 3.04584 7.86712 3.42178 7.86712H17.0381C17.4141 7.86712 17.7746 7.70095 18.0405 7.40515C18.3063 7.10934 18.4556 6.70816 18.4556 6.28983C18.4556 5.8715 18.3063 5.47031 18.0405 5.17451C17.7746 4.87871 17.4141 4.71252 17.0381 4.71252H17.0393ZM17.0393 6.69073H3.42178C3.32623 6.69073 3.23459 6.64849 3.16702 6.57331C3.09946 6.49812 3.0615 6.39615 3.0615 6.28983C3.0615 6.18351 3.09946 6.08154 3.16702 6.00635C3.23459 5.93117 3.32623 5.88893 3.42178 5.88893H17.0381C17.1337 5.88893 17.2253 5.93117 17.2929 6.00635C17.3605 6.08154 17.3984 6.18351 17.3984 6.28983C17.3984 6.39615 17.3605 6.49812 17.2929 6.57331C17.2253 6.64849 17.1337 6.69073 17.0381 6.69073H17.0393Z" fill="#003AA8"/>
<path d="M11.8619 4.03417H13.2723C13.4133 4.03417 13.5485 3.97185 13.6482 3.86093C13.7479 3.75 13.8039 3.59956 13.8039 3.44268C13.8039 3.28581 13.7479 3.13536 13.6482 3.02444C13.5485 2.91351 13.4133 2.8512 13.2723 2.8512H11.8619C11.7209 2.8512 11.5857 2.91351 11.486 3.02444C11.3863 3.13536 11.3303 3.28581 11.3303 3.44268C11.3303 3.59956 11.3863 3.75 11.486 3.86093C11.5857 3.97185 11.7209 4.03417 11.8619 4.03417Z" fill="#003AA8"/>
<path d="M15.3892 4.03417H16.7996C16.9406 4.03417 17.0758 3.97185 17.1755 3.86093C17.2752 3.75 17.3312 3.59956 17.3312 3.44268C17.3312 3.28581 17.2752 3.13536 17.1755 3.02444C17.0758 2.91351 16.9406 2.8512 16.7996 2.8512H15.3892C15.2482 2.8512 15.113 2.91351 15.0133 3.02444C14.9136 3.13536 14.8576 3.28581 14.8576 3.44268C14.8576 3.59956 14.9136 3.75 15.0133 3.86093C15.113 3.97185 15.2482 4.03417 15.3892 4.03417Z" fill="#003AA8"/>
<path d="M5.47242 11.8511C6.07959 11.5041 5.54448 10.4881 4.9385 10.8351C4.71355 10.9322 4.5082 11.0781 4.33442 11.2644C4.16064 11.4506 4.02189 11.6734 3.92625 11.9199C3.8306 12.1664 3.77998 12.4316 3.77733 12.7001C3.77468 12.9685 3.82005 13.2349 3.9108 13.4837C4.26518 14.643 5.44644 15.9153 4.10098 16.7697C3.98509 16.8513 3.90218 16.9798 3.86974 17.128C3.83731 17.2763 3.85787 17.4328 3.9271 17.5645C3.99633 17.6963 4.10881 17.793 4.24085 17.8342C4.37289 17.8755 4.51417 17.8581 4.63491 17.7857C5.09857 17.5611 5.46721 17.1473 5.66498 16.6295C5.86274 16.1116 5.87457 15.5291 5.69804 15.0018C5.37201 13.9056 4.15296 12.6056 5.47242 11.8511Z" fill="#003AA8"/>
<path d="M11.1154 11.8511C11.7225 11.5041 11.1874 10.4881 10.5814 10.8351C10.3565 10.9322 10.1511 11.0781 9.97736 11.2644C9.80358 11.4506 9.66483 11.6734 9.56919 11.9199C9.47354 12.1664 9.42293 12.4316 9.42028 12.7001C9.41762 12.9685 9.463 13.2349 9.55375 13.4837C9.90812 14.643 11.0894 15.9153 9.74392 16.7697C9.62803 16.8513 9.54513 16.9798 9.51269 17.128C9.48025 17.2763 9.50081 17.4328 9.57004 17.5645C9.63927 17.6963 9.75176 17.793 9.8838 17.8342C10.0158 17.8755 10.1571 17.8581 10.2779 17.7857C10.7415 17.5611 11.1102 17.1473 11.3079 16.6295C11.5057 16.1116 11.5175 15.5291 11.341 15.0018C11.015 13.9056 9.7959 12.6056 11.1154 11.8511Z" fill="#003AA8"/>
<path d="M16.757 11.8511C17.3641 11.5041 16.829 10.4881 16.223 10.8351C15.9981 10.9322 15.7927 11.0781 15.619 11.2644C15.4452 11.4506 15.3064 11.6734 15.2108 11.9199C15.1152 12.1664 15.0645 12.4316 15.0619 12.7001C15.0592 12.9685 15.1046 13.2349 15.1953 13.4837C15.5497 14.643 16.731 15.9153 15.3855 16.7697C15.2696 16.8513 15.1867 16.9798 15.1543 17.128C15.1219 17.2763 15.1424 17.4328 15.2116 17.5645C15.2809 17.6963 15.3934 17.793 15.5254 17.8342C15.6574 17.8755 15.7987 17.8581 15.9195 17.7857C16.3831 17.5611 16.7518 17.1473 16.9495 16.6295C17.1473 16.1116 17.1591 15.5291 16.9826 15.0018C16.6566 13.9056 15.4387 12.6056 16.757 11.8511Z" fill="#003AA8"/>
</svg>
