<svg width="17" height="18" viewBox="0 0 17 18" fill="none" xmlns="http://www.w3.org/2000/svg">
<path d="M16.2213 0H1.16797C0.862633 0 0.615082 0.256525 0.615082 0.572993V16.6447C0.615082 16.9611 0.862633 17.2177 1.16803 17.2177H16.2213C16.5267 17.2177 16.7743 16.9611 16.7743 16.6447V0.572993C16.7742 0.256525 16.5267 0 16.2213 0ZM15.6684 16.0717H1.72092V1.14593H15.6684V16.0717Z" fill="#003AA8"/>
<path d="M3.22073 15.0206H14.1686C14.4739 15.0206 14.7215 14.7641 14.7215 14.4476V2.76989C14.7215 2.45348 14.474 2.1969 14.1686 2.1969H3.22073C2.91539 2.1969 2.66779 2.45342 2.66779 2.76989V14.4477C2.66784 14.764 2.91539 15.0206 3.22073 15.0206ZM8.33528 7.66334V3.34283H9.0541V7.66334C9.0541 7.97975 9.30165 8.23634 9.60705 8.23634H13.6158V8.98122H9.60705C9.30171 8.98122 9.0541 9.23774 9.0541 9.55421V13.8747H8.33528V9.55421C8.33528 9.2378 8.08773 8.98122 7.78233 8.98122H3.77368V8.23634H7.78239C8.08767 8.23634 8.33528 7.97975 8.33528 7.66334ZM3.77368 10.1271H7.22944V13.8746H3.77368V10.1271ZM10.1599 13.8747V10.1271H13.6156V13.8747H10.1599ZM13.6156 7.09041H10.1599V3.34283H13.6156V7.09041ZM7.22944 3.34283V7.09035H3.77368V3.34283H7.22944Z" fill="#003AA8"/>
</svg>
