<svg width="19" height="18" viewBox="0 0 19 18" fill="none" xmlns="http://www.w3.org/2000/svg">
<path d="M17.7197 4.15547H5.38415V3.09663C5.38392 2.97924 5.36698 2.86248 5.33385 2.74986L16.326 1.06497C16.3955 1.05436 16.4623 1.03017 16.5225 0.99377C16.5826 0.957369 16.635 0.909472 16.6767 0.852813C16.7184 0.796154 16.7485 0.731844 16.7653 0.663554C16.7821 0.595264 16.7853 0.524332 16.7747 0.454807C16.7641 0.385282 16.7399 0.318527 16.7035 0.258352C16.6671 0.198176 16.6192 0.14576 16.5625 0.104096C16.5059 0.0624316 16.4416 0.0323349 16.3733 0.0155244C16.305 -0.00128616 16.234 -0.00448187 16.1645 0.00612066L4.15059 1.8591H1.93628C1.60642 1.85945 1.29017 1.99064 1.05693 2.22389C0.823681 2.45714 0.692489 2.77339 0.692139 3.10325L0.692139 11.0843C0.692489 11.4142 0.823681 11.7304 1.05693 11.9637C1.29017 12.1969 1.60642 12.3281 1.93628 12.3284H4.53046V16.4712C4.53081 16.6691 4.60957 16.8587 4.74948 16.9986C4.8894 17.1386 5.07907 17.2173 5.27694 17.2177H14.387C14.5849 17.2173 14.7745 17.1386 14.9144 16.9986C15.0544 16.8587 15.1331 16.6691 15.1335 16.4712V12.3284H17.7237C18.0535 12.3281 18.3698 12.1969 18.603 11.9637C18.8363 11.7304 18.9675 11.4142 18.9678 11.0843V5.393C18.9657 5.0636 18.8332 4.74845 18.5993 4.51652C18.3654 4.28459 18.0491 4.15477 17.7197 4.15547ZM1.75893 3.10325C1.76095 3.05735 1.78044 3.01396 1.81342 2.98197C1.84639 2.94999 1.89035 2.93181 1.93628 2.93118H4.14001C4.18683 2.93187 4.23155 2.95077 4.26466 2.98389C4.29777 3.017 4.31668 3.06171 4.31736 3.10854V4.55122C4.31575 4.57501 4.31575 4.59889 4.31736 4.62269C4.30648 4.69827 4.31207 4.77531 4.33376 4.84852C4.35544 4.92173 4.39271 4.98939 4.443 5.04685C4.49329 5.10431 4.55542 5.15021 4.62511 5.1814C4.69481 5.21259 4.77043 5.22834 4.84679 5.22756H17.7144C17.7612 5.22824 17.806 5.24714 17.8391 5.28026C17.8722 5.31337 17.8911 5.35809 17.8918 5.40491V8.60263H1.75893V3.10325ZM1.93628 11.263C1.88946 11.2623 1.84474 11.2434 1.81163 11.2103C1.77851 11.1772 1.75961 11.1324 1.75893 11.0856V9.66412H4.53046V11.263H1.93628ZM14.0601 16.1509H5.5893V9.66544H14.0601V16.1509ZM17.7171 11.263H15.1295V9.66412H17.8984V11.0843C17.898 11.1316 17.8791 11.1768 17.8457 11.2103C17.8122 11.2437 17.767 11.2626 17.7197 11.263H17.7171Z" fill="#003AA8"/>
</svg>
