<svg width="45" height="38" viewBox="0 0 45 38" fill="none" xmlns="http://www.w3.org/2000/svg">
<path d="M26.3374 34.6592C35.5595 34.6592 41.7112 28.3889 41.7112 19C41.7112 9.61117 35.5595 2.92917 26.3374 2.92917C22.9963 2.92917 20.9279 3.19343 18.5504 4.75H13.9929C17.2828 1.79377 21.6044 0 26.3374 0C36.6444 0 45 8.50659 45 19C45 29.4934 36.6444 38 26.3374 38C16.1233 38 7.69182 29.2983 7.67542 19H10.9479C10.9418 28.0975 17.2439 34.6592 26.3374 34.6592Z" fill="#C8004B"/>
<path d="M18.6268 16.7186L18.6226 16.7172L18.6137 16.7141H18.6047L18.5405 16.7143L18.2966 16.7146L17.4232 16.7156L14.7496 16.7189C12.7897 16.7213 10.7871 16.7236 10.6162 16.7236C9.93069 16.7236 9.37338 16.157 9.37338 15.4599C9.37338 14.7608 9.93069 14.1962 10.6162 14.1962L13.7084 14.1972L15.6638 14.1979L16.3005 14.1981L16.4781 14.1982L16.5248 14.1982L16.5368 14.1982H16.5398H16.5406H16.5408L16.5408 14.1937L16.5409 14.1814L16.1336 13.1168L16.1408 13.114H16.1295V13.1185L16.1294 13.114H16.1291H16.1278H16.1227L16.1025 13.114L16.0238 13.1139L15.7247 13.1138L14.6545 13.1133L11.3825 13.112L6.36488 13.1099C5.68396 13.1099 5.13064 12.5473 5.13064 11.8543C5.13064 11.1613 5.68396 10.6001 6.36488 10.6001L10.8771 10.6011L13.8346 10.6018L14.8026 10.602L15.0732 10.6021L15.1444 10.6021H15.1627H15.1673H15.1684H15.1687L15.1688 10.5976L15.1689 10.5856L14.749 9.52203L14.7559 9.51921H14.7449V9.52371L14.7448 9.51921H14.7443H14.7427H14.7361H14.7101L14.6088 9.51924L14.2236 9.51935L12.8461 9.51973L8.63918 9.52089L2.23888 9.52258C1.55332 9.52258 1 8.9593 1 8.26429C1 7.56658 1.55332 7.00464 2.23888 7.00464H18.3223C21.0442 7.00464 23.9696 8.71383 25.161 11.2316L25.1651 11.2297L25.1689 11.2277L25.2106 11.2073L25.1674 11.2335C26.1276 10.6523 27.1571 10.2419 28.3375 10.2601C29.2562 10.2753 29.9697 10.49 30.5113 10.8685C31.0528 11.2471 31.4228 11.7898 31.6534 12.4616L31.6575 12.4601L31.6617 12.4586L31.6668 12.4568L31.6617 12.4623C32.9242 11.1304 34.501 10.2601 36.1643 10.2601C37.3172 10.2601 38.2446 10.6573 38.7833 11.3497C39.3219 12.042 39.4727 13.0304 39.0707 14.2145V14.2146L34.3419 28.3957H30.1929L34.5371 15.4829C34.5628 15.4065 34.5951 15.3162 34.6314 15.2154C34.7878 14.7786 35.0152 14.1433 35.0855 13.5775C35.1287 13.2293 35.1125 12.9064 34.983 12.6719C34.853 12.4369 34.6097 12.2917 34.2012 12.2978C33.3135 12.3099 32.5088 12.9966 31.8351 13.9658C31.1612 14.9353 30.6175 16.1888 30.2522 17.3372L26.6248 28.3957H22.5246L26.8092 15.4762C26.8408 15.3814 26.8756 15.2805 26.9119 15.1751C27.0937 14.6468 27.3141 14.0069 27.3666 13.4652C27.3982 13.1404 27.3697 12.8499 27.2357 12.6398C27.1013 12.4294 26.8618 12.3006 26.4741 12.2978C25.8369 12.2927 25.1388 12.6685 24.4531 13.4945C23.7672 14.3206 23.0937 15.5975 22.5056 17.3958L18.9002 28.3957H14.7511L18.631 16.7202L18.6268 16.7186ZM18.6268 16.7186L18.6266 16.7141H18.6268V16.7186Z" fill="#C8004B" stroke="#4D4D4D" stroke-width="0.00568182"/>
</svg>
